<svg width="6047" height="1791" viewBox="0 0 6047 1791" fill="none" xmlns="http://www.w3.org/2000/svg">
<rect width="6047" height="1791" fill="url(#paint0_radial_91_3664)"/>
<path d="M1889 1023V543H2178.59V594.562H1947.11V756.75H2163.6V808.312H1947.11V971.437H2182.34V1023H1889Z" fill="white"/>
<path d="M2485.73 890.344L2436.06 904.406C2432.93 896.125 2428.32 888.078 2422.23 880.266C2416.3 872.297 2408.18 865.734 2397.87 860.578C2387.56 855.422 2374.36 852.844 2358.27 852.844C2336.25 852.844 2317.89 857.922 2303.21 868.078C2288.68 878.078 2281.42 890.813 2281.42 906.281C2281.42 920.031 2286.42 930.891 2296.41 938.859C2306.41 946.828 2322.03 953.469 2343.27 958.781L2396.69 971.906C2428.87 979.719 2452.85 991.672 2468.62 1007.77C2484.4 1023.7 2492.29 1044.25 2492.29 1069.41C2492.29 1090.03 2486.35 1108.47 2474.48 1124.72C2462.77 1140.97 2446.37 1153.78 2425.28 1163.16C2404.19 1172.53 2379.67 1177.22 2351.71 1177.22C2315 1177.22 2284.62 1169.25 2260.57 1153.31C2236.51 1137.38 2221.28 1114.09 2214.88 1083.47L2267.36 1070.34C2272.36 1089.72 2281.81 1104.25 2295.71 1113.94C2309.77 1123.63 2328.12 1128.47 2350.77 1128.47C2376.55 1128.47 2397.01 1123 2412.16 1112.06C2427.47 1100.97 2435.12 1087.69 2435.12 1072.22C2435.12 1059.72 2430.75 1049.25 2422 1040.81C2413.25 1032.22 2399.82 1025.81 2381.7 1021.59L2321.72 1007.53C2288.76 999.719 2264.55 987.609 2249.09 971.203C2233.78 954.641 2226.13 933.938 2226.13 909.094C2226.13 888.781 2231.83 870.813 2243.23 855.188C2254.79 839.563 2270.49 827.297 2290.32 818.391C2310.32 809.485 2332.97 805.031 2358.27 805.031C2393.88 805.031 2421.84 812.844 2442.15 828.469C2462.61 844.094 2477.14 864.719 2485.73 890.344Z" fill="white"/>
<path d="M2811.2 957.844L2761.52 971.906C2758.4 963.625 2753.79 955.578 2747.7 947.766C2741.76 939.797 2733.64 933.234 2723.33 928.078C2713.02 922.922 2699.83 920.344 2683.74 920.344C2661.71 920.344 2643.36 925.422 2628.68 935.578C2614.15 945.578 2606.89 958.313 2606.89 973.781C2606.89 987.531 2611.88 998.391 2621.88 1006.36C2631.88 1014.33 2647.5 1020.97 2668.74 1026.28L2722.16 1039.41C2754.34 1047.22 2778.32 1059.17 2794.09 1075.27C2809.87 1091.2 2817.76 1111.75 2817.76 1136.91C2817.76 1157.53 2811.82 1175.97 2799.95 1192.22C2788.23 1208.47 2771.83 1221.28 2750.75 1230.66C2729.66 1240.03 2705.14 1244.72 2677.18 1244.72C2640.47 1244.72 2610.09 1236.75 2586.03 1220.81C2561.98 1204.87 2546.75 1181.59 2540.35 1150.97L2592.83 1137.84C2597.83 1157.22 2607.28 1171.75 2621.18 1181.44C2635.24 1191.12 2653.59 1195.97 2676.24 1195.97C2702.01 1195.97 2722.47 1190.5 2737.63 1179.56C2752.93 1168.47 2760.59 1155.19 2760.59 1139.72C2760.59 1127.22 2756.21 1116.75 2747.47 1108.31C2738.72 1099.72 2725.29 1093.31 2707.17 1089.09L2647.19 1075.03C2614.23 1067.22 2590.02 1055.11 2574.55 1038.7C2559.25 1022.14 2551.59 1001.44 2551.59 976.594C2551.59 956.281 2557.29 938.313 2568.7 922.688C2580.25 907.063 2595.95 894.797 2615.79 885.891C2635.78 876.984 2658.43 872.531 2683.74 872.531C2719.35 872.531 2747.31 880.344 2767.62 895.969C2788.08 911.594 2802.6 932.219 2811.2 957.844Z" fill="white"/>
<path d="M3004.32 975.188C2969.64 975.188 2939.73 967.531 2914.58 952.219C2889.59 936.75 2870.3 915.188 2856.71 887.531C2843.27 859.719 2836.56 827.375 2836.56 790.5C2836.56 753.625 2843.27 721.125 2856.71 693C2870.3 664.719 2889.2 642.688 2913.41 626.906C2937.78 610.969 2966.2 603 2998.69 603C3017.44 603 3035.95 606.125 3054.22 612.375C3072.5 618.625 3089.13 628.781 3104.13 642.844C3119.12 656.75 3131.07 675.188 3139.98 698.156C3148.88 721.125 3153.33 749.406 3153.33 783V806.438H2875.92V758.625H3097.1C3097.1 738.313 3093.04 720.188 3084.91 704.25C3076.95 688.313 3065.55 675.735 3050.71 666.516C3036.02 657.297 3018.69 652.688 2998.69 652.688C2976.67 652.688 2957.61 658.156 2941.52 669.094C2925.59 679.875 2913.33 693.938 2904.74 711.281C2896.15 728.625 2891.85 747.219 2891.85 767.063V798.938C2891.85 826.125 2896.54 849.172 2905.91 868.078C2915.44 886.828 2928.64 901.125 2945.51 910.969C2962.38 920.656 2981.98 925.5 3004.32 925.5C3018.84 925.5 3031.96 923.469 3043.68 919.406C3055.55 915.188 3065.78 908.938 3074.37 900.656C3082.96 892.219 3089.6 881.75 3094.29 869.25L3147.71 884.25C3142.08 902.375 3132.63 918.313 3119.36 932.063C3106.08 945.656 3089.68 956.281 3070.15 963.938C3050.63 971.438 3028.68 975.188 3004.32 975.188Z" fill="white"/>
<path d="M3264.3 1031.44V1248H3209V888H3262.42V944.25H3267.11C3275.54 925.969 3288.35 911.281 3305.53 900.188C3322.72 888.938 3344.9 883.313 3372.07 883.313C3396.44 883.313 3417.76 888.313 3436.04 898.313C3454.31 908.156 3468.53 923.156 3478.68 943.313C3488.83 963.313 3493.91 988.625 3493.91 1019.25V1248H3438.62V1023C3438.62 994.719 3431.27 972.688 3416.59 956.906C3401.91 940.969 3381.76 933 3356.14 933C3338.49 933 3322.72 936.828 3308.81 944.484C3295.07 952.141 3284.21 963.313 3276.25 978C3268.28 992.688 3264.3 1010.5 3264.3 1031.44Z" fill="white"/>
<path d="M3680.56 1108.31C3646.82 1108.31 3617.77 1100.34 3593.4 1084.41C3569.03 1068.47 3550.29 1046.52 3537.17 1018.55C3524.05 990.578 3517.49 958.625 3517.49 922.688C3517.49 886.125 3524.21 853.859 3537.64 825.891C3551.23 797.766 3570.13 775.813 3594.34 760.031C3618.71 744.094 3647.13 736.125 3679.62 736.125C3704.93 736.125 3727.73 740.813 3748.04 750.188C3768.34 759.563 3784.98 772.688 3797.94 789.563C3810.91 806.438 3818.95 826.125 3822.08 848.625H3766.78C3762.57 832.219 3753.19 817.688 3738.67 805.031C3724.3 792.219 3704.93 785.813 3680.56 785.813C3659.01 785.813 3640.11 791.438 3623.86 802.688C3607.77 813.781 3595.2 829.484 3586.14 849.797C3577.24 869.953 3572.78 893.625 3572.78 920.813C3572.78 948.625 3577.16 972.844 3585.9 993.469C3594.81 1014.09 3607.3 1030.11 3623.39 1041.52C3639.64 1052.92 3658.69 1058.63 3680.56 1058.63C3694.93 1058.63 3707.97 1056.13 3719.69 1051.13C3731.4 1046.13 3741.32 1038.94 3749.44 1029.56C3757.57 1020.19 3763.35 1008.94 3766.78 995.813H3822.08C3818.95 1017.06 3811.22 1036.2 3798.88 1053.23C3786.7 1070.11 3770.53 1083.55 3750.38 1093.55C3730.39 1103.39 3707.11 1108.31 3680.56 1108.31Z" fill="white"/>
<path d="M4009.99 1220.81C3975.31 1220.81 3945.4 1213.16 3920.25 1197.84C3895.26 1182.37 3875.97 1160.81 3862.38 1133.16C3848.94 1105.34 3842.23 1073 3842.23 1036.13C3842.23 999.25 3848.94 966.75 3862.38 938.625C3875.97 910.344 3894.87 888.313 3919.08 872.531C3943.44 856.594 3971.87 848.625 4004.36 848.625C4023.11 848.625 4041.62 851.75 4059.89 858C4078.17 864.25 4094.8 874.406 4109.8 888.469C4124.79 902.375 4136.74 920.813 4145.65 943.781C4154.55 966.75 4159 995.031 4159 1028.63V1052.06H3881.59V1004.25H4102.77C4102.77 983.938 4098.71 965.813 4090.58 949.875C4082.62 933.938 4071.22 921.359 4056.38 912.141C4041.69 902.922 4024.36 898.313 4004.36 898.313C3982.34 898.313 3963.28 903.781 3947.19 914.719C3931.26 925.5 3919 939.563 3910.41 956.906C3901.82 974.25 3897.52 992.844 3897.52 1012.69V1044.56C3897.52 1071.75 3902.21 1094.8 3911.58 1113.7C3921.11 1132.45 3934.31 1146.75 3951.18 1156.59C3968.05 1166.28 3987.65 1171.12 4009.99 1171.12C4024.51 1171.12 4037.63 1169.09 4049.35 1165.03C4061.22 1160.81 4071.45 1154.56 4080.04 1146.28C4088.63 1137.84 4095.27 1127.38 4099.96 1114.88L4153.38 1129.88C4147.75 1148 4138.3 1163.94 4125.03 1177.69C4111.75 1191.28 4095.35 1201.91 4075.82 1209.56C4056.3 1217.06 4034.35 1220.81 4009.99 1220.81Z" fill="white"/>
<defs>
<radialGradient id="paint0_radial_91_3664" cx="0" cy="0" r="1" gradientUnits="userSpaceOnUse" gradientTransform="translate(3023.5 895.5) rotate(90) scale(895.5 3023.5)">
<stop offset="0.360932" stop-color="#FF5E00"/>
<stop offset="0.96843" stop-color="#FFD47E"/>
</radialGradient>
</defs>
</svg>
