<svg width="1398" height="356" viewBox="0 0 1398 356" fill="none" xmlns="http://www.w3.org/2000/svg">
<rect width="1398" height="356" rx="178" fill="url(#paint0_radial_107_364)"/>
<path d="M414 209.511V89H486.717V101.945H428.591V142.665H482.952V155.61H428.591V196.565H487.659V209.511H414Z" fill="white"/>
<path d="M563.839 176.205L551.367 179.736C550.582 177.657 549.425 175.637 547.896 173.675C546.405 171.675 544.366 170.027 541.777 168.732C539.188 167.438 535.874 166.791 531.834 166.791C526.304 166.791 521.695 168.066 518.009 170.615C514.361 173.126 512.537 176.323 512.537 180.207C512.537 183.659 513.792 186.385 516.302 188.386C518.813 190.387 522.735 192.054 528.069 193.388L541.483 196.683C549.563 198.644 555.583 201.645 559.544 205.686C563.506 209.687 565.487 214.846 565.487 221.162C565.487 226.34 563.996 230.969 561.015 235.049C558.074 239.128 553.955 242.345 548.66 244.699C543.365 247.053 537.208 248.229 530.187 248.229C520.97 248.229 513.341 246.229 507.301 242.227C501.261 238.226 497.437 232.381 495.829 224.692L509.007 221.397C510.262 226.261 512.635 229.91 516.126 232.342C519.656 234.774 524.264 235.99 529.952 235.99C536.423 235.99 541.561 234.617 545.366 231.871C549.21 229.086 551.131 225.751 551.131 221.868C551.131 218.729 550.033 216.101 547.837 213.983C545.64 211.825 542.267 210.217 537.718 209.158L522.656 205.627C514.381 203.666 508.301 200.625 504.418 196.506C500.574 192.348 498.653 187.15 498.653 180.913C498.653 175.813 500.084 171.302 502.947 167.379C505.85 163.456 509.792 160.377 514.773 158.141C519.793 155.905 525.48 154.787 531.834 154.787C540.777 154.787 547.797 156.748 552.896 160.671C558.034 164.594 561.682 169.772 563.839 176.205Z" fill="white"/>
<path d="M645.564 193.152L633.092 196.683C632.307 194.604 631.15 192.583 629.621 190.622C628.13 188.621 626.091 186.974 623.502 185.679C620.913 184.385 617.599 183.737 613.559 183.737C608.029 183.737 603.421 185.012 599.734 187.562C596.086 190.073 594.262 193.27 594.262 197.154C594.262 200.606 595.517 203.332 598.028 205.333C600.538 207.333 604.46 209.001 609.794 210.334L623.208 213.63C631.288 215.591 637.308 218.592 641.27 222.633C645.231 226.634 647.212 231.793 647.212 238.108C647.212 243.287 645.721 247.916 642.74 251.995C639.799 256.075 635.68 259.292 630.386 261.646C625.091 263.999 618.933 265.176 611.912 265.176C602.695 265.176 595.066 263.175 589.026 259.174C582.986 255.173 579.162 249.328 577.554 241.639L590.732 238.344C591.987 243.208 594.36 246.856 597.851 249.289C601.381 251.721 605.99 252.937 611.677 252.937C618.148 252.937 623.286 251.564 627.091 248.818C630.935 246.033 632.857 242.698 632.857 238.814C632.857 235.676 631.758 233.048 629.562 230.93C627.365 228.772 623.992 227.164 619.443 226.104L604.381 222.574C596.106 220.612 590.026 217.572 586.143 213.453C582.3 209.295 580.378 204.097 580.378 197.86C580.378 192.76 581.809 188.249 584.672 184.326C587.575 180.403 591.517 177.323 596.498 175.087C601.518 172.851 607.205 171.733 613.559 171.733C622.502 171.733 629.523 173.695 634.621 177.618C639.76 181.541 643.407 186.719 645.564 193.152Z" fill="white"/>
<path d="M694.057 197.507C685.35 197.507 677.839 195.584 671.524 191.74C665.249 187.856 660.405 182.443 656.993 175.499C653.62 168.517 651.933 160.396 651.933 151.138C651.933 141.88 653.62 133.721 656.993 126.66C660.405 119.559 665.151 114.028 671.23 110.066C677.349 106.065 684.487 104.064 692.645 104.064C697.352 104.064 702 104.848 706.589 106.418C711.178 107.987 715.355 110.537 719.12 114.067C722.885 117.559 725.886 122.188 728.121 127.954C730.357 133.721 731.475 140.821 731.475 149.255V155.14H661.817V143.136H717.355C717.355 138.036 716.335 133.485 714.296 129.484C712.295 125.483 709.432 122.325 705.706 120.01C702.019 117.696 697.666 116.539 692.645 116.539C687.115 116.539 682.33 117.912 678.29 120.658C674.289 123.364 671.211 126.895 669.053 131.249C666.896 135.604 665.818 140.272 665.818 145.254V153.257C665.818 160.082 666.994 165.869 669.348 170.615C671.74 175.323 675.054 178.912 679.29 181.384C683.526 183.816 688.449 185.032 694.057 185.032C697.705 185.032 701 184.522 703.941 183.502C706.922 182.443 709.491 180.874 711.648 178.795C713.806 176.676 715.472 174.048 716.649 170.91L730.063 174.676C728.651 179.226 726.278 183.227 722.944 186.68C719.61 190.092 715.492 192.76 710.589 194.682C705.687 196.565 700.176 197.507 694.057 197.507Z" fill="white"/>
<path d="M759.339 211.629V266H745.454V175.617H758.868V189.739H760.045C762.163 185.15 765.379 181.462 769.694 178.677C774.008 175.852 779.577 174.44 786.402 174.44C792.521 174.44 797.874 175.696 802.463 178.206C807.052 180.678 810.622 184.444 813.171 189.504C815.72 194.525 816.995 200.88 816.995 208.569V266H803.111V209.511C803.111 202.41 801.267 196.879 797.58 192.917C793.893 188.916 788.834 186.915 782.401 186.915C777.969 186.915 774.008 187.876 770.517 189.798C767.066 191.72 764.34 194.525 762.339 198.213C760.339 201.9 759.339 206.372 759.339 211.629Z" fill="white"/>
<path d="M863.863 230.93C855.391 230.93 848.096 228.929 841.978 224.928C835.859 220.926 831.152 215.415 827.858 208.393C824.563 201.371 822.916 193.348 822.916 184.326C822.916 175.146 824.602 167.046 827.975 160.024C831.388 152.962 836.133 147.451 842.213 143.489C848.331 139.487 855.47 137.487 863.628 137.487C869.982 137.487 875.708 138.664 880.807 141.017C885.906 143.371 890.083 146.666 893.339 150.903C896.594 155.14 898.614 160.082 899.398 165.731H885.514C884.455 161.612 882.101 157.964 878.454 154.787C874.845 151.57 869.982 149.961 863.863 149.961C858.451 149.961 853.705 151.374 849.626 154.198C845.586 156.983 842.429 160.926 840.154 166.026C837.918 171.086 836.8 177.029 836.8 183.855C836.8 190.838 837.898 196.918 840.095 202.096C842.331 207.275 845.468 211.296 849.508 214.159C853.587 217.023 858.372 218.455 863.863 218.455C867.472 218.455 870.747 217.827 873.688 216.572C876.63 215.317 879.121 213.512 881.16 211.158C883.2 208.805 884.651 205.98 885.514 202.685H899.398C898.614 208.02 896.672 212.825 893.574 217.101C890.515 221.338 886.455 224.712 881.395 227.222C876.375 229.694 870.531 230.93 863.863 230.93Z" fill="white"/>
<path d="M946.582 259.174C937.875 259.174 930.364 257.252 924.049 253.408C917.774 249.524 912.93 244.11 909.518 237.167C906.145 230.184 904.458 222.064 904.458 212.806C904.458 203.548 906.145 195.388 909.518 188.327C912.93 181.227 917.676 175.696 923.755 171.733C929.874 167.732 937.012 165.731 945.17 165.731C949.877 165.731 954.525 166.516 959.114 168.085C963.703 169.654 967.88 172.204 971.645 175.735C975.41 179.226 978.411 183.855 980.647 189.622C982.882 195.388 984 202.489 984 210.923V216.807H914.342V204.803H969.88C969.88 199.703 968.86 195.153 966.821 191.152C964.82 187.15 961.957 183.992 958.231 181.678C954.544 179.363 950.191 178.206 945.17 178.206C939.64 178.206 934.855 179.579 930.815 182.325C926.814 185.032 923.735 188.563 921.578 192.917C919.421 197.271 918.342 201.94 918.342 206.922V214.924C918.342 221.75 919.519 227.536 921.872 232.283C924.265 236.99 927.579 240.58 931.815 243.051C936.051 245.483 940.974 246.699 946.582 246.699C950.23 246.699 953.525 246.189 956.466 245.17C959.447 244.11 962.016 242.541 964.173 240.462C966.33 238.344 967.997 235.715 969.174 232.577L982.588 236.343C981.176 240.894 978.803 244.895 975.469 248.347C972.135 251.76 968.017 254.427 963.114 256.35C958.212 258.233 952.701 259.174 946.582 259.174Z" fill="white"/>
<defs>
<radialGradient id="paint0_radial_107_364" cx="0" cy="0" r="1" gradientUnits="userSpaceOnUse" gradientTransform="translate(699 178) rotate(90) scale(178 699)">
<stop offset="0.360932" stop-color="#FF5E00"/>
<stop offset="0.96843" stop-color="#FFD47E"/>
</radialGradient>
</defs>
</svg>
